<?xml version="1.0" encoding="UTF-8"?>
<!DOCTYPE svg PUBLIC "-//W3C//DTD SVG 1.0//EN" "http://www.w3.org/TR/2001/REC-SVG-20010904/DTD/svg10.dtd">
<!-- Creator: CorelDRAW 2020 (64-Bit) -->
<svg xmlns="http://www.w3.org/2000/svg" xml:space="preserve" width="938px" height="152px" version="1.0" shape-rendering="geometricPrecision" text-rendering="geometricPrecision" image-rendering="optimizeQuality" fill-rule="evenodd" clip-rule="evenodd"
viewBox="0 0 938 152.43"
 xmlns:xlink="http://www.w3.org/1999/xlink"
 xmlns:xodm="http://www.corel.com/coreldraw/odm/2003">
 <g id="Layer_x0020_1">
  <metadata id="CorelCorpID_0Corel-Layer"/>
  <g id="_2162603964656">
   <path fill="#192444" fill-rule="nonzero" d="M179.85 26.77c3.47,0.81 5.2,2.41 5.2,4.88l0 17.59 15.7 0c3.2,0.48 4.79,1.96 4.79,4.42l0 1.03c0,2.44 -1.59,3.9 -4.79,4.35l-15.7 0 0 34.74c0,13.37 1.93,20.03 5.75,20.03 0,0.75 1.42,1.23 4.3,1.48 2.27,0 5.91,-0.8 10.88,-2.44l0.49 0c2.54,1.24 3.81,2.87 3.81,4.88 0,4.5 -4.6,7.11 -13.76,7.79l-1 0c-9.46,0 -15.94,-4.7 -19.49,-14.12 -0.95,-4.13 -1.41,-8.07 -1.41,-11.79l0 -40.57 -9.54 0c-3.15,-0.45 -4.71,-1.91 -4.71,-4.35l0 -0.52c0.41,-3.3 2,-4.93 4.71,-4.93l9.54 0 0 -17.09c0.61,-3.57 2.34,-5.38 5.23,-5.38z"/>
   <path id="1" fill="#192444" fill-rule="nonzero" d="M225.47 27.3c3.81,0.48 5.72,2.29 5.72,5.38l0 28.78c6.35,-8.78 15.38,-13.17 27.08,-13.17 14.28,0 24.42,7.34 30.43,22.01 1.28,3.67 1.93,9.38 1.93,17.09l0 30.34c0,5.2 -1.61,7.79 -4.78,7.79l-1.45 0c-3.15,0 -4.71,-1.78 -4.71,-5.38l0 -35.64c0,-11.86 -4.45,-19.88 -13.33,-24 -2.88,-0.98 -5.25,-1.46 -7.16,-1.46l-3.3 0c-11.61,0 -19.7,6.36 -24.27,19.05 -0.29,1.74 -0.44,3.37 -0.44,4.96l0 36.67c-0.34,3.87 -1.93,5.8 -4.79,5.8l-1.44 0c-3.16,-0.43 -4.72,-1.88 -4.72,-4.35l0 -90.48c1.51,-2.26 3.27,-3.39 5.23,-3.39z"/>
   <path id="2" fill="#192444" fill-rule="nonzero" d="M314.19 26.77c3.29,0 5.18,2.11 5.67,6.33l0 4.96c-0.29,3.87 -1.86,5.8 -4.72,5.8l-1.96 0c-2.81,0 -4.37,-1.93 -4.71,-5.8l0 -4.96c0.53,-4.22 2.44,-6.33 5.72,-6.33zm0 22.97c3.49,0 5.23,1.49 5.23,4.43l0 67c0,2.89 -1.74,4.35 -5.23,4.35 -3.82,0 -5.72,-2.59 -5.72,-7.79l0 -60.17c0,-5.2 1.9,-7.82 5.72,-7.82z"/>
   <path id="3" fill="#192444" fill-rule="nonzero" d="M375.57 48.29c14.52,0 24.84,7.34 30.95,22.01 0.95,3.5 1.44,6.44 1.44,8.82l0 42.05c-0.44,2.89 -1.88,4.35 -4.3,4.35l-1.93 0c-3.16,0 -4.74,-2.91 -4.74,-8.75l0 -37.19c0,-9.96 -6.02,-16.82 -18.04,-20.54l-4.79 0c-11.61,0 -19.85,6.84 -24.72,20.54 -0.61,3.54 -0.92,7.28 -0.92,11.26l0 30.33c-0.44,2.89 -1.86,4.35 -4.31,4.35l-1.93 0c-2.81,0 -4.4,-1.93 -4.72,-5.8l0 -64.07c0,-4.27 1.91,-6.41 5.73,-6.41 3.49,0 5.23,2.14 5.23,6.41l0 6.84 0.44 0c5.47,-9.48 14.34,-14.2 26.61,-14.2z"/>
   <path id="4" fill="#192444" fill-rule="nonzero" d="M456.59 47.83l2.35 0c10.07,0 17.53,3.6 22.34,10.76l0.51 0c0,-6.53 0.93,-9.8 2.79,-9.8 0.59,-0.33 1.22,-0.5 1.93,-0.5 4.11,0 6.16,2.58 6.16,7.79l0 58.26c0,18.12 -5.69,29.5 -17.11,34.15 -5.16,2.67 -10.68,3.98 -16.62,3.98l-3.79 0c-12.27,0 -21.46,-4.4 -27.57,-13.25l0 -1.48c0.71,-3.22 2.29,-4.85 4.71,-4.85l0.96 0c0.76,0 5.06,2.46 12.88,7.36 3.45,0.93 6.75,1.41 9.95,1.41l1.44 0c11.37,0 19.12,-4.55 23.27,-13.62 0.66,-2.95 1,-5.08 1,-6.41l0 -7.82c-6.01,7.82 -13.93,11.71 -23.78,11.71 -16.99,0 -28.57,-9.27 -34.74,-27.82 -0.61,-2.36 -1.1,-5.96 -1.41,-10.76 0,-19 9.19,-31.72 27.57,-38.15 3.01,-0.63 5.38,-0.96 7.16,-0.96zm-23.78 40.07c0,14.42 7.28,23.24 21.85,26.44 1.17,0.3 2.62,0.42 4.28,0.42 11,0 18.43,-6 22.34,-18.02 0.34,-2.86 0.51,-5.3 0.51,-7.36l0 -5.91c0,-11.03 -3.49,-18.37 -10.46,-22.01 -4.52,-1.92 -8.5,-2.87 -11.88,-2.87l-1.93 0c-13.27,0 -21.51,8.65 -24.71,25.91l0 3.4z"/>
   <path id="5" fill="#192444" fill-rule="nonzero" d="M542.08 48.29c15.08,0 24.62,5.37 28.58,16.11l0 1.48c-1.05,2.94 -2.79,4.42 -5.23,4.42l-1.42 0c-2.05,0 -3.96,-2.11 -5.75,-6.33 -3.71,-3.6 -9.11,-5.38 -16.18,-5.38l-5.23 0c-12.34,1.38 -18.53,5.45 -18.53,12.22 0,4.12 2.2,6.91 6.65,8.31 24.2,2.02 38.01,4.78 41.39,8.27 4.1,3.82 6.15,8.25 6.15,13.25l0 2.94c0,9.02 -5.69,15.53 -17.11,19.5 -4.61,1.64 -9.53,2.44 -14.74,2.44l-0.92 0c-15.38,0 -25.84,-4.4 -31.39,-13.17 -0.95,-2.94 -1.42,-4.92 -1.42,-5.91l0 -0.42c0,-2.77 1.91,-4.4 5.72,-4.95 2.5,0 4.55,2.64 6.16,7.89 4.92,4.22 11.27,6.33 19.04,6.33l4.23 0c9.61,0 16.14,-3.59 19.56,-10.75l0 -3.9c0,-5.88 -7.92,-8.85 -23.79,-8.85 -13.83,-1.61 -21.75,-3.89 -23.76,-6.83 -4.44,-2.74 -6.67,-7.65 -6.67,-14.66 0,-11.33 8.88,-18.67 26.57,-22.01l8.09 0z"/>
   <path id="6" fill="#192444" fill-rule="nonzero" d="M589.93 49.24c2.81,0 4.4,1.96 4.72,5.88l0 8.85 0.51 0c5.35,-9.83 14.23,-14.73 26.64,-14.73 12.52,0 21.71,5.71 27.58,17.17 0.27,0.62 0.41,1.13 0.41,1.45l1 0c5.85,-12.41 15.82,-18.62 29.95,-18.62 14.61,0 25.05,7.19 31.36,21.57 0.95,3.44 1.44,6.35 1.44,8.77l0 41.09c-0.44,3.24 -2,4.85 -4.74,4.85l-1.42 0c-3.2,0 -4.81,-2.44 -4.81,-7.29l0 -37.7c0,-9.72 -5.53,-16.38 -16.6,-20.03 -1.69,-0.3 -3.25,-0.43 -4.74,-0.43l-1.42 0c-12.03,0 -20.29,6.81 -24.79,20.46 -0.61,3.92 -0.93,8.85 -0.93,14.73l0 25.91c0,2.89 -1.73,4.35 -5.23,4.35l-0.92 0c-2.87,0 -4.45,-1.93 -4.8,-5.8l0 -37.2c0,-9.58 -4.1,-16.41 -12.32,-20.54 -2.86,-1.28 -6.03,-1.91 -9.53,-1.91 -13.37,0 -22.07,7.65 -26.13,22.98l0 36.14c0,4.22 -1.74,6.33 -5.23,6.33 -3.82,-0.3 -5.72,-1.91 -5.72,-4.85l0 -65.98c0,-3.19 1.9,-5 5.72,-5.45z"/>
   <path id="7" fill="#192444" fill-rule="nonzero" d="M763.59 48.59c10.46,0 18.38,3.57 23.78,10.73l0 -4.93c0.44,-3.24 1.83,-4.85 4.23,-4.85l1.93 0c2.86,0 4.45,1.96 4.72,5.88l0 63.54c0,4.22 -2.06,6.33 -6.16,6.33 -3.15,-0.72 -4.72,-2.33 -4.72,-4.85l0 -6.4c-6.31,8.14 -14.08,12.21 -23.34,12.21 -15.13,0 -26.23,-7.64 -33.3,-22.97 -2.2,-5.78 -3.29,-11.16 -3.29,-16.11 0,-19.2 9.36,-31.75 28.05,-37.63 3.7,-0.65 6.39,-0.95 8.1,-0.95zm-25.2 38.58c0,13.09 6.18,22.24 18.55,27.39 2.39,0.63 4.59,0.96 6.65,0.96l1.44 0c12.12,0 19.58,-7.01 22.34,-20.99l0 -11.79c0,-12.41 -5.7,-20.08 -17.11,-22.97 -2.74,-0.3 -4.82,-0.45 -6.23,-0.45 -13.81,0 -22.2,7.67 -25.21,22.97l-0.43 4.88z"/>
   <path id="8" fill="#192444" fill-rule="nonzero" d="M826.93 26.77c3.47,0.81 5.21,2.41 5.21,4.88l0 17.59 15.69 0c3.21,0.48 4.79,1.96 4.79,4.42l0 1.03c0,2.44 -1.58,3.9 -4.79,4.35l-15.69 0 0 34.74c0,13.37 1.93,20.03 5.74,20.03 0,0.75 1.42,1.23 4.31,1.48 2.27,0 5.91,-0.8 10.87,-2.44l0.49 0c2.54,1.24 3.82,2.87 3.82,4.88 0,4.5 -4.6,7.11 -13.77,7.79l-1 0c-9.46,0 -15.94,-4.7 -19.48,-14.12 -0.95,-4.13 -1.42,-8.07 -1.42,-11.79l0 -40.57 -9.53 0c-3.15,-0.45 -4.72,-1.91 -4.72,-4.35l0 -0.52c0.41,-3.3 2,-4.93 4.72,-4.93l9.53 0 0 -17.09c0.61,-3.57 2.35,-5.38 5.23,-5.38z"/>
   <path id="9" fill="#192444" fill-rule="nonzero" d="M897.54 48.79l5.74 0c13.93,0 24.71,7.84 32.36,23.5 1.57,5.65 2.37,11.01 2.37,16.13 0,3 -2.05,4.78 -6.16,5.36l-57.07 0c0,7.29 4.91,13.77 14.74,19.53 3.64,1.33 6.77,1.98 9.46,1.98l2.42 0c7.45,0 14.1,-2.46 19.92,-7.36l2.44 -0.46c3.13,0.76 4.72,2.37 4.72,4.88 -1.76,7.52 -10.49,11.89 -26.13,13.17l-2.37 0c-17.57,0 -29.14,-8.95 -34.73,-26.87 -0.96,-2.36 -1.45,-5.63 -1.45,-9.8l0 -3.39c0,-16.89 8.73,-28.78 26.16,-35.72 3.62,-0.62 6.16,-0.95 7.58,-0.95zm-23.27 35.71l53.28 0c0,-10.45 -5.86,-18.45 -17.62,-24 -2.76,-0.98 -5.94,-1.46 -9.53,-1.46 -12.59,0 -21,6.51 -25.21,19.58 -0.61,2.59 -0.92,4.58 -0.92,5.88z"/>
   <rect fill="#192444" x="-0.01" y="-0.03" width="145.24" height="152.05" rx="13.62" ry="13.62"/>
   <g>
    <path fill="white" d="M12.99 5.06l119.23 0c4.35,0 7.91,3.56 7.91,7.91l0 126.04c0,4.36 -3.56,7.92 -7.91,7.92l-119.23 0c-4.35,0 -7.91,-3.56 -7.91,-7.92l0 -126.04c0,-4.35 3.56,-7.91 7.91,-7.91z"/>
   </g>
   <path fill="#192444" d="M43.63 42.13c-6.94,0 -18.55,-1.95 -18.43,6.48 0.05,3.31 3.12,5.66 6.46,5.92 3.6,0.28 8.32,0.03 12.04,0.03 0,13.48 -0.02,26.97 -0.03,40.45 0,12.48 1.36,24.7 7.55,32.81 2.75,3.59 5.99,6.64 11.79,8.58 5.28,1.77 12.08,2.14 17.9,1.12 24.93,-4.32 26.54,-30.99 22.95,-34.8 -3.71,-3.95 -11.81,-1.61 -12.58,3.29 -1.2,7.6 -0.36,10.25 -5.79,14.59 -3.66,2.92 -10.23,4.3 -15.98,2.9 -11.59,-2.84 -11.48,-16.13 -11.48,-28.87 0,-13.36 -0.1,-26.72 -0.1,-40.07 3.99,0 24.71,0.57 27.62,-0.65 5.58,-2.36 4.87,-9.35 -0.17,-11.18 -3.03,-1.1 -23.31,-0.61 -27.36,-0.61 -1.21,-17.89 4.04,-28.22 -7.18,-28.21 -2.61,0 -5.3,1.13 -6.38,2.69 -1.58,2.28 -0.48,19.83 -0.83,25.53z"/>
   <g>
    <path fill="#192444" d="M80.27 88.1c3.93,0.76 7.94,-8.24 22.51,-5.9 9.21,1.48 12.34,6.74 14.25,8.07 1.93,1.34 4.32,-0.5 2.07,-2.85 -9.85,-10.31 -25.26,-12.21 -37.09,-3.55 -1.79,1.32 -2.95,2 -1.74,4.23z"/>
    <path fill="#192444" d="M84.9 93.33c3.64,2.7 5.34,-5.28 16.38,-3.54 6.99,1.11 9.18,5.38 10.46,5.83 3.04,1.08 4.56,-2.76 -3.82,-7.22 -6.77,-3.6 -15.03,-2.82 -21.24,1.64 -1.21,0.87 -2.05,1.18 -1.78,3.29z"/>
    <path fill="#192444" d="M90.28 99.56c2.31,0.53 2.96,-0.93 4.95,-1.72 6.17,-2.46 9.46,2.06 10.57,2.62 2.51,1.25 3.06,-1.41 1.95,-2.79 -5.17,-6.41 -19.68,-3.88 -17.47,1.89z"/>
   </g>
  </g>
 </g>
</svg>
