<?xml version="1.0" encoding="UTF-8"?>
<!DOCTYPE svg PUBLIC "-//W3C//DTD SVG 1.0//EN" "http://www.w3.org/TR/2001/REC-SVG-20010904/DTD/svg10.dtd">
<!-- Creator: CorelDRAW 2020 (64-Bit) -->
<svg xmlns="http://www.w3.org/2000/svg" xml:space="preserve" width="213px" height="213px" version="1.0" shape-rendering="geometricPrecision" text-rendering="geometricPrecision" image-rendering="optimizeQuality" fill-rule="evenodd" clip-rule="evenodd"
viewBox="0 0 213 213"
 xmlns:xlink="http://www.w3.org/1999/xlink"
 xmlns:xodm="http://www.corel.com/coreldraw/odm/2003">
 <g id="Layer_x0020_1">
  <metadata id="CorelCorpID_0Corel-Layer"/>
  <g id="_2315522659440">
   <rect fill="none" stroke="#2B2A29" stroke-width="4.17" stroke-miterlimit="22.9256" x="18.73" y="15.48" width="174.7" height="182.89" rx="16.38" ry="16.38"/>
   <path fill="#2B2A29" d="M71.23 66.19c-8.35,0 -22.31,-2.34 -22.17,7.79 0.06,3.98 3.75,6.81 7.77,7.12 4.32,0.34 10.01,0.04 14.48,0.04 0,16.22 -0.03,32.43 -0.03,48.65 0,15.01 1.63,29.72 9.08,39.46 3.3,4.33 7.2,8 14.17,10.33 6.36,2.12 14.54,2.57 21.54,1.35 29.98,-5.2 31.92,-37.29 27.61,-41.87 -4.48,-4.75 -14.21,-1.93 -15.14,3.96 -1.45,9.15 -0.43,12.34 -6.97,17.56 -4.39,3.51 -12.3,5.17 -19.21,3.48 -13.95,-3.42 -13.81,-19.4 -13.81,-34.72 0,-16.08 -0.12,-32.14 -0.12,-48.2 4.8,0 29.72,0.69 33.22,-0.79 6.72,-2.83 5.86,-11.24 -0.2,-13.43 -3.65,-1.33 -28.04,-0.74 -32.92,-0.74 -1.46,-21.52 4.86,-33.94 -8.64,-33.93 -3.13,0 -6.37,1.36 -7.66,3.22 -1.9,2.75 -0.58,23.86 -1,30.72z"/>
   <path fill="#2B2A29" d="M115.3 119.07c4.73,0.91 9.55,-9.91 27.08,-7.1 11.08,1.78 14.84,8.11 17.13,9.71 2.32,1.61 5.21,-0.61 2.5,-3.44 -11.85,-12.39 -30.39,-14.68 -44.62,-4.26 -2.15,1.58 -3.55,2.41 -2.09,5.09z"/>
   <path fill="#2B2A29" d="M120.87 125.36c4.37,3.25 6.42,-6.35 19.7,-4.25 8.4,1.32 11.04,6.46 12.58,7.01 3.66,1.29 5.48,-3.33 -4.59,-8.69 -8.14,-4.33 -18.09,-3.39 -25.55,1.97 -1.46,1.04 -2.47,1.42 -2.14,3.96z"/>
   <path fill="#2B2A29" d="M127.33 132.85c2.79,0.63 3.57,-1.11 5.97,-2.07 7.42,-2.95 11.37,2.49 12.71,3.15 3.02,1.5 3.68,-1.69 2.34,-3.35 -6.22,-7.71 -23.67,-4.67 -21.02,2.27z"/>
  </g>
 </g>
</svg>
